<svg width="64" height="64" viewBox="0 0 64 64" fill="none" xmlns="http://www.w3.org/2000/svg">
<g opacity="0.5">
<path d="M32.2383 60.4324C44.7526 60.4324 54.8974 57.9182 54.8974 54.8169C54.8974 51.7155 44.7526 49.2014 32.2383 49.2014C19.724 49.2014 9.5791 51.7155 9.5791 54.8169C9.5791 57.9182 19.724 60.4324 32.2383 60.4324Z" fill="#ABD6C8"/>
<path d="M32.2383 60.4324C44.7526 60.4324 54.8974 57.9182 54.8974 54.8169C54.8974 51.7155 44.7526 49.2014 32.2383 49.2014C19.724 49.2014 9.5791 51.7155 9.5791 54.8169C9.5791 57.9182 19.724 60.4324 32.2383 60.4324Z" fill="black" fill-opacity="0.2"/>
</g>
<path d="M41.4271 53.7185C41.4271 55.688 39.8313 57.2838 37.8619 57.2838H26.9285C24.9591 57.2838 23.3633 55.688 23.3633 53.7185C23.3633 51.7491 24.9591 50.1533 26.9285 50.1533H37.8619C39.8308 50.1533 41.4271 51.7491 41.4271 53.7185Z" fill="#ABD6C8"/>
<path d="M37.8622 58.7099H26.9288C24.1765 58.7099 21.9375 56.471 21.9375 53.7186C21.9375 50.9663 24.1765 48.7273 26.9288 48.7273H37.8622C40.6145 48.7273 42.8535 50.9663 42.8535 53.7186C42.8535 56.471 40.6145 58.7099 37.8622 58.7099ZM26.9288 51.5795C25.7494 51.5795 24.7897 52.5392 24.7897 53.7186C24.7897 54.898 25.7494 55.8578 26.9288 55.8578H37.8622C39.0416 55.8578 40.0013 54.898 40.0013 53.7186C40.0013 52.5392 39.0416 51.5795 37.8622 51.5795H26.9288Z" fill="#296652"/>
<path d="M52.8357 34.4662C52.8357 37.0807 50.6966 39.2198 48.0821 39.2198H15.282C12.6675 39.2198 10.5283 37.0807 10.5283 34.4662V9.74729C10.5283 7.13279 12.6675 4.99365 15.282 4.99365H48.0821C50.6966 4.99365 52.8357 7.13279 52.8357 9.74729V34.4662Z" fill="#ABD6C8"/>
<path d="M48.0824 40.646H15.2823C11.8749 40.646 9.10254 37.8737 9.10254 34.4663V9.74736C9.10254 6.33995 11.8749 3.56763 15.2823 3.56763H48.0824C51.4898 3.56763 54.2621 6.33995 54.2621 9.74736V34.4663C54.2621 37.8737 51.4898 40.646 48.0824 40.646ZM15.2823 6.41981C13.4478 6.41981 11.9547 7.91293 11.9547 9.74736V34.4663C11.9547 36.3007 13.4478 37.7938 15.2823 37.7938H48.0824C49.9168 37.7938 51.4099 36.3007 51.4099 34.4663V9.74736C51.4099 7.91293 49.9168 6.41981 48.0824 6.41981H15.2823Z" fill="#296652"/>
<path d="M34.7725 43.0229L36.1986 53.0056H28.5928L30.0189 43.0229H34.7725Z" fill="#ABD6C8"/>
<path d="M36.207 54.4315C36.2047 54.4315 36.2009 54.4315 36.198 54.4315H28.5922C28.1786 54.4315 27.786 54.2523 27.5145 53.94C27.244 53.6277 27.1219 53.2131 27.1804 52.8039L28.6064 42.8212C28.7067 42.1182 29.3086 41.5967 30.0183 41.5967H34.7719C35.4816 41.5967 36.0834 42.1186 36.1837 42.8212L37.5865 52.6399C37.617 52.7563 37.6336 52.879 37.6336 53.0054C37.6331 53.7931 36.9947 54.4315 36.207 54.4315ZM30.2365 51.5793H34.5537L33.535 44.4489H31.2547L30.2365 51.5793Z" fill="#296652"/>
<g opacity="0.2">
<path d="M33.026 43.5225L33.8208 48.2519H29.0967L29.8915 43.5225H33.026Z" fill="#296652"/>
</g>
<path d="M52.8357 38.7445C52.8357 41.359 50.6966 43.4982 48.0821 43.4982H15.282C12.6675 43.4982 10.5283 41.359 10.5283 38.7445V14.0256C10.5283 11.4111 12.6675 9.27197 15.282 9.27197H48.0821C50.6966 9.27197 52.8357 11.4111 52.8357 14.0256V38.7445Z" fill="#ABD6C8"/>
<path d="M48.0826 44.4489H15.2825C12.137 44.4489 9.57812 41.8901 9.57812 38.7446V14.0257C9.57812 10.8802 12.137 8.32129 15.2825 8.32129H48.0826C51.2281 8.32129 53.787 10.8802 53.787 14.0257V38.7446C53.787 41.8901 51.2281 44.4489 48.0826 44.4489ZM15.2825 10.2227C13.1857 10.2227 11.4796 11.9288 11.4796 14.0257V38.7446C11.4796 40.8414 13.1857 42.5475 15.2825 42.5475H48.0826C50.1794 42.5475 51.8855 40.8414 51.8855 38.7446V14.0257C51.8855 11.9288 50.1794 10.2227 48.0826 10.2227H15.2825Z" fill="#296652"/>
<path d="M32.1579 40.646C32.8142 40.646 33.3463 40.1139 33.3463 39.4576C33.3463 38.8012 32.8142 38.2692 32.1579 38.2692C31.5016 38.2692 30.9695 38.8012 30.9695 39.4576C30.9695 40.1139 31.5016 40.646 32.1579 40.646Z" fill="#296652"/>
<path d="M47.6072 14.0256H15.7578V35.8924H47.6072V14.0256Z" fill="#E2F3EE"/>
<path d="M48.0824 44.9243H15.2823C11.8749 44.9243 9.10254 42.152 9.10254 38.7446V9.27204C9.10254 8.48436 9.74095 7.84595 10.5286 7.84595C11.3163 7.84595 11.9547 8.48436 11.9547 9.27204V38.7446C11.9547 40.579 13.4478 42.0721 15.2823 42.0721H48.0824C49.9168 42.0721 51.4099 40.579 51.4099 38.7446V9.27204C51.4099 8.48436 52.0483 7.84595 52.836 7.84595C53.6237 7.84595 54.2621 8.48436 54.2621 9.27204V38.7446C54.2621 42.152 51.4898 44.9243 48.0824 44.9243Z" fill="#296652"/>
<path d="M31.9198 35.4171C31.3946 35.4171 30.9691 34.9912 30.9691 34.4664V14.5011C30.9691 13.9763 31.3946 13.5504 31.9198 13.5504C32.4446 13.5504 32.8706 13.9763 32.8706 14.5011V34.4664C32.8706 34.9912 32.4446 35.4171 31.9198 35.4171Z" fill="#769C90"/>
<path d="M36.1981 22.5823H31.9198C31.3946 22.5823 30.9691 22.1563 30.9691 21.6315C30.9691 21.1067 31.3946 20.6808 31.9198 20.6808H36.1981C37.5596 20.6808 38.4941 19.856 38.9633 19.3098L38.1923 18.2303C37.6713 19.0432 36.8689 19.7301 35.7228 19.7301H31.9198C31.3946 19.7301 30.9691 19.3041 30.9691 18.7793C30.9691 18.2545 31.3946 17.8286 31.9198 17.8286H35.7228C36.6236 17.8286 37.04 16.1111 37.0438 16.094C37.1208 15.7247 37.4098 15.4361 37.7787 15.3586C38.1509 15.2792 38.5284 15.4295 38.748 15.7365L40.9099 18.7637C41.1267 19.0674 41.1457 19.47 40.9589 19.7933C40.8923 19.9069 39.3051 22.5823 36.1981 22.5823Z" fill="#769C90"/>
<path d="M38.0996 28.2867H33.346C32.8207 28.2867 32.3953 27.8608 32.3953 27.336C32.3953 26.8112 32.8207 26.3853 33.346 26.3853H38.0996C40.0933 26.3853 41.0155 24.9378 41.0535 24.876C41.3293 24.433 41.9125 24.2908 42.3575 24.5618C42.8034 24.8328 42.9498 25.4084 42.6826 25.8567C42.6232 25.956 41.1985 28.2867 38.0996 28.2867Z" fill="#769C90"/>
<path d="M40.1365 34.1048C35.9228 34.1048 35.2935 31.6125 35.2935 30.127C35.2935 29.6835 35.1651 29.3612 34.8894 29.1116C34.1417 28.4347 32.5221 28.428 32.0144 28.4784C31.4948 28.5317 31.0261 28.1495 30.9738 27.627C30.922 27.1041 31.3028 26.6388 31.8252 26.5865C32.1128 26.5589 34.6674 26.3464 36.1658 27.7021C36.8389 28.3116 37.1949 29.1501 37.1949 30.1275C37.1949 31.5825 38.0748 32.2038 40.1365 32.2038C40.4678 32.2038 41.3482 32.2038 41.3482 30.1275C41.3482 28.7788 41.101 26.4206 40.8728 24.5277C40.2691 25.0734 39.4624 25.4565 38.4066 25.4565H31.9203C31.395 25.4565 30.9696 25.0306 30.9696 24.5058C30.9696 23.981 31.395 23.5551 31.9203 23.5551H38.4066C40.1341 23.5551 40.4792 21.4297 40.4935 21.3394C40.5643 20.875 40.9641 20.5303 41.4337 20.5303C41.4356 20.5303 41.4371 20.5303 41.439 20.5303C41.9101 20.5327 42.3089 20.8778 42.3754 21.3442C42.4111 21.5942 43.2501 27.4958 43.2501 30.1279C43.2496 33.8182 40.8666 34.1048 40.1365 34.1048Z" fill="#769C90"/>
<path d="M39.0506 31.1388H36.1984C35.6731 31.1388 35.2477 30.7129 35.2477 30.1881C35.2477 29.6633 35.6731 29.2374 36.1984 29.2374H39.0506C39.9776 29.2374 40.798 27.9857 41.0119 27.5475C41.2415 27.0759 41.8087 26.8781 42.2835 27.1106C42.7551 27.3407 42.951 27.9102 42.7204 28.3822C42.6653 28.4949 41.3475 31.1388 39.0506 31.1388Z" fill="#769C90"/>
<path d="M41.4347 22.4288C41.1114 22.4288 40.7967 22.2643 40.6185 21.9672L39.3212 19.8052C39.0512 19.3551 39.1967 18.7708 39.6473 18.5008C40.0975 18.2308 40.6817 18.3763 40.9517 18.8269L42.249 20.9889C42.519 21.4391 42.3735 22.0233 41.9233 22.2933C41.7698 22.385 41.6015 22.4288 41.4347 22.4288Z" fill="#769C90"/>
<path d="M31.92 22.5823H27.6417C24.5348 22.5823 22.9475 19.907 22.881 19.7934C22.6937 19.4701 22.7127 19.0675 22.9299 18.7637L25.0919 15.7366C25.3115 15.4295 25.6885 15.2798 26.0612 15.3587C26.43 15.4362 26.7191 15.7247 26.7961 16.0941C26.7994 16.1079 27.2139 17.8287 28.1171 17.8287H31.92C32.4448 17.8287 32.8707 18.2546 32.8707 18.7794C32.8707 19.3042 32.4448 19.7301 31.92 19.7301H28.1171C26.971 19.7301 26.1681 19.0432 25.6476 18.2304L24.8766 19.3104C25.3457 19.8561 26.2798 20.6809 27.6417 20.6809H31.92C32.4448 20.6809 32.8707 21.1068 32.8707 21.6316C32.8707 22.1564 32.4448 22.5823 31.92 22.5823Z" fill="#769C90"/>
<path d="M30.4941 28.2866H25.7405C22.6411 28.2866 21.2165 25.9559 21.1575 25.8565C20.8885 25.4059 21.0363 24.8222 21.4874 24.5536C21.9343 24.2859 22.5166 24.4309 22.7866 24.8773C22.8346 24.9534 23.7568 26.3856 25.74 26.3856H30.4937C31.0185 26.3856 31.4444 26.8115 31.4444 27.3364C31.4444 27.8612 31.0189 28.2866 30.4941 28.2866Z" fill="#769C90"/>
<path d="M23.7035 34.1046C22.9733 34.1046 20.5903 33.8175 20.5903 30.1268C20.5903 27.4952 21.4293 21.5935 21.465 21.343C21.532 20.8748 21.9328 20.5268 22.4057 20.5268C22.8787 20.5268 23.2799 20.8743 23.3465 21.343C23.3598 21.429 23.7054 23.5539 25.4329 23.5539H31.9202C32.445 23.5539 32.8709 23.9798 32.8709 24.5046C32.8709 25.0294 32.445 25.4554 31.9202 25.4554H25.4333C24.3776 25.4554 23.5709 25.0722 22.9676 24.5265C22.739 26.4194 22.4923 28.7777 22.4923 30.1263C22.4923 32.2027 23.3726 32.2027 23.704 32.2027C25.7656 32.2027 26.6455 31.5814 26.6455 30.1263C26.6455 29.1489 27.0016 28.3109 27.6747 27.701C29.173 26.3443 31.7281 26.5577 32.0152 26.5853C32.5376 26.6376 32.9184 27.1035 32.8666 27.6259C32.8143 28.1474 32.358 28.531 31.8279 28.4773C31.2779 28.4259 29.6912 28.4373 28.9482 29.1128C28.6744 29.3614 28.5465 29.6833 28.5465 30.1258C28.5465 31.6123 27.9176 34.1046 23.7035 34.1046Z" fill="#769C90"/>
<path d="M27.642 31.1389H24.3145C22.3769 31.1389 21.3553 29.3021 21.0573 28.2168C20.9185 27.711 21.2161 27.1876 21.7228 27.0484C22.2281 26.9091 22.7496 27.2057 22.8898 27.7096C22.8993 27.74 23.3576 29.2379 24.3145 29.2379H27.642C28.1668 29.2379 28.5928 29.6638 28.5928 30.1886C28.5928 30.7134 28.1668 31.1389 27.642 31.1389Z" fill="#769C90"/>
<path d="M22.4049 22.4289C22.2381 22.4289 22.0698 22.3851 21.9167 22.2934C21.4666 22.0234 21.3206 21.4392 21.5906 20.989L22.8884 18.827C23.1584 18.3769 23.7426 18.2305 24.1928 18.5009C24.6429 18.7709 24.7889 19.3552 24.5189 19.8053L23.2216 21.9673C23.0429 22.2644 22.7282 22.4289 22.4049 22.4289Z" fill="#769C90"/>
<path d="M47.6067 36.8433H15.7574C15.2321 36.8433 14.8066 36.4173 14.8066 35.8925V14.0258C14.8066 13.501 15.2321 13.0751 15.7574 13.0751H47.6067C48.1315 13.0751 48.5575 13.501 48.5575 14.0258V35.8925C48.5575 36.4173 48.1315 36.8433 47.6067 36.8433ZM16.7081 34.9418H46.656V14.9765H16.7081V34.9418Z" fill="#296652"/>
</svg>
