<svg width="205" height="34" viewBox="0 0 205 34" fill="none" xmlns="http://www.w3.org/2000/svg">
<g clip-path="url(#clip0_0_1676)">
<path d="M29.3063 0H5.17169C2.31545 0 0 2.28335 0 5.1V28.9C0 31.7167 2.31545 34 5.17169 34H29.3063C32.1625 34 34.478 31.7167 34.478 28.9V5.1C34.478 2.28335 32.1625 0 29.3063 0Z" fill="#30AB84"/>
<path d="M11.9371 6.69352H10.1709C10.1709 8.39721 10.8628 9.94054 11.9821 11.0574C13.1013 12.1743 14.6479 12.8648 16.3553 12.8648V16.8333C16.3553 16.954 16.4045 17.0641 16.4848 17.1443C16.5652 17.2244 16.6755 17.2737 16.7976 17.2737H17.6812C17.8022 17.2737 17.9126 17.2244 17.9929 17.1443C18.0732 17.0641 18.1226 16.954 18.1226 16.8333V12.8648C18.1226 11.1611 17.4306 9.61778 16.3113 8.50088C15.1921 7.38396 13.6454 6.69352 11.9371 6.69352ZM22.5407 4.92999C21.3774 4.92999 20.2914 5.25063 19.3627 5.80748C18.4353 6.36433 17.6652 7.15738 17.1371 8.10434C17.5195 8.52012 17.8516 8.98075 18.1269 9.47775C18.401 9.97473 18.6163 10.5081 18.7663 11.0692C20.3214 10.9078 21.7074 10.1714 22.7035 9.07589C23.6995 7.98143 24.3069 6.52679 24.3069 4.92999H22.5407Z" fill="#FCFFFE"/>
<path d="M21.3251 18.4899C21.4171 18.4899 21.4997 18.4525 21.5597 18.3926C21.6197 18.3328 21.6571 18.2505 21.6571 18.1585V17.0566C21.6571 16.9658 21.6197 16.8824 21.5597 16.8226C21.4997 16.7627 21.4171 16.7264 21.3251 16.7264H13.1528C13.0607 16.7264 12.9782 16.7627 12.9183 16.8226C12.8583 16.8824 12.8208 16.9658 12.8208 17.0566V18.2901C12.8208 18.3809 12.8583 18.4632 12.9183 18.523C12.9782 18.5829 13.0607 18.6203 13.1528 18.6203H15.507C15.884 18.6203 16.2172 18.6886 16.4999 18.817C16.7827 18.9451 17.0151 19.1333 17.1907 19.3706H13.1528C13.0607 19.3706 12.9782 19.408 12.9183 19.4679C12.8583 19.5277 12.8208 19.61 12.8208 19.702V20.8039C12.8208 20.8947 12.8583 20.9782 12.9183 21.038C12.9782 21.0978 13.0607 21.1341 13.1528 21.1341H17.5356C17.4499 21.6311 17.2229 22.0351 16.8726 22.3152C16.5224 22.5942 16.049 22.7501 15.4717 22.7501H13.1528C13.0607 22.7501 12.9782 22.7865 12.9183 22.8463C12.8583 22.9061 12.8208 22.9896 12.8208 23.0804V24.5415C12.8208 24.5874 12.8304 24.6323 12.8486 24.674C12.8669 24.7156 12.8936 24.7532 12.9279 24.7841L17.4853 28.9823C17.5153 29.0102 17.5506 29.0326 17.5892 29.0465C17.6278 29.0615 17.6685 29.07 17.7102 29.07H19.9894C20.1404 29.07 20.2518 28.977 20.298 28.8594C20.344 28.7419 20.3247 28.5976 20.2144 28.4961L16.048 24.659C17.104 24.6259 18.009 24.2581 18.6753 23.6426C19.3414 23.026 19.7677 22.1612 19.8674 21.1341H21.3251C21.4171 21.1341 21.4997 21.0978 21.5597 21.038C21.6197 20.9782 21.6571 20.8947 21.6571 20.8039V19.702C21.6571 19.61 21.6197 19.5277 21.5597 19.4679C21.4997 19.408 21.4171 19.3706 21.3251 19.3706H19.7046C19.6563 19.2124 19.5996 19.0585 19.5343 18.9122C19.4679 18.7646 19.394 18.6235 19.3116 18.4899H21.3251Z" fill="#FCFFFE"/>
<path d="M50.3425 25.1483C49.1656 25.1483 48.1109 24.9599 47.1785 24.583C46.246 24.2061 45.4972 23.6485 44.9316 22.9099C44.3813 22.1712 44.0908 21.282 44.0603 20.2419H48.2332C48.2944 20.8298 48.5007 21.282 48.8522 21.5985C49.2037 21.8999 49.6623 22.0507 50.2279 22.0507C50.8087 22.0507 51.2672 21.9225 51.6036 21.6663C51.9399 21.395 52.108 21.0258 52.108 20.5584C52.108 20.1666 51.9704 19.8424 51.6953 19.5862C51.4355 19.33 51.1067 19.1189 50.7094 18.9531C50.3272 18.7874 49.7769 18.5989 49.0586 18.3879C48.0192 18.0713 47.1709 17.7548 46.5136 17.4383C45.8563 17.1217 45.2908 16.6544 44.8169 16.0364C44.343 15.4184 44.1062 14.612 44.1062 13.6172C44.1062 12.14 44.6488 10.9869 45.734 10.1578C46.8192 9.31374 48.2332 8.89169 49.9757 8.89169C51.7487 8.89169 53.178 9.31374 54.2632 10.1578C55.3484 10.9869 55.9293 12.1475 56.0057 13.6398H51.7641C51.7335 13.1273 51.5424 12.7279 51.1909 12.4415C50.8394 12.14 50.3884 11.9893 49.8381 11.9893C49.3642 11.9893 48.9822 12.1174 48.6917 12.3736C48.4012 12.6148 48.2561 12.969 48.2561 13.4363C48.2561 13.9488 48.5007 14.3482 48.9898 14.6346C49.4789 14.921 50.2432 15.23 51.2826 15.5616C52.3219 15.9083 53.1627 16.2399 53.8046 16.5565C54.462 16.873 55.0274 17.3327 55.5013 17.9357C55.9752 18.5387 56.2121 19.3149 56.2121 20.2645C56.2121 21.1689 55.9752 21.9904 55.5013 22.729C55.0427 23.4677 54.3702 24.0555 53.4836 24.4926C52.597 24.9297 51.5501 25.1483 50.3425 25.1483ZM62.5455 14.1598C62.9277 13.572 63.455 13.0971 64.1275 12.7354C64.8002 12.3736 65.5873 12.1927 66.4891 12.1927C67.5438 12.1927 68.4991 12.4565 69.3551 12.9841C70.2111 13.5117 70.8836 14.2653 71.3727 15.2451C71.8771 16.2249 72.1293 17.363 72.1293 18.6592C72.1293 19.9555 71.8771 21.1011 71.3727 22.0959C70.8836 23.0756 70.2111 23.8369 69.3551 24.3795C68.4991 24.907 67.5438 25.1709 66.4891 25.1709C65.6027 25.1709 64.8153 24.99 64.1275 24.6282C63.455 24.2665 62.9277 23.7992 62.5455 23.2264V31.0043H58.6248V12.3736H62.5455V14.1598ZM68.1399 18.6592C68.1399 17.6945 67.8647 16.9408 67.3145 16.3982C66.7796 15.8405 66.1146 15.5616 65.3198 15.5616C64.5402 15.5616 63.8753 15.8405 63.325 16.3982C62.7901 16.9559 62.5226 17.7171 62.5226 18.6818C62.5226 19.6466 62.7901 20.4077 63.325 20.9654C63.8753 21.5232 64.5402 21.802 65.3198 21.802C66.0993 21.802 66.7642 21.5232 67.3145 20.9654C67.8647 20.3927 68.1399 19.624 68.1399 18.6592ZM78.1069 14.4764C78.5655 13.783 79.1387 13.2403 79.8265 12.8484C80.5144 12.4415 81.2786 12.238 82.1193 12.238V16.3304H81.0417C80.0634 16.3304 79.3297 16.5414 78.8406 16.9635C78.3514 17.3704 78.1069 18.094 78.1069 19.134V24.99H74.1863V12.3736H78.1069V14.4764ZM85.965 11.0622C85.2772 11.0622 84.7117 10.8663 84.2683 10.4744C83.8405 10.0674 83.6264 9.56998 83.6264 8.98212C83.6264 8.37919 83.8405 7.88177 84.2683 7.48986C84.7117 7.08288 85.2772 6.87939 85.965 6.87939C86.6377 6.87939 87.1879 7.08288 87.6158 7.48986C88.0592 7.88177 88.2807 8.37919 88.2807 8.98212C88.2807 9.56998 88.0592 10.0674 87.6158 10.4744C87.1879 10.8663 86.6377 11.0622 85.965 11.0622ZM87.9139 12.3736V24.99H83.9932V12.3736H87.9139ZM98.5507 12.238C100.049 12.238 101.241 12.7203 102.127 13.685C103.029 14.6346 103.48 15.946 103.48 17.6191V24.99H99.5824V18.1392C99.5824 17.2951 99.3607 16.6394 98.9175 16.1721C98.4743 15.7048 97.8782 15.4712 97.1291 15.4712C96.3801 15.4712 95.784 15.7048 95.3408 16.1721C94.8975 16.6394 94.6758 17.2951 94.6758 18.1392V24.99H90.7552V12.3736H94.6758V14.0468C95.0732 13.489 95.6083 13.0519 96.2808 12.7354C96.9533 12.4038 97.7099 12.238 98.5507 12.238ZM111.065 12.1927C111.967 12.1927 112.754 12.3736 113.427 12.7354C114.115 13.0971 114.642 13.572 115.009 14.1598V12.3736H118.93V24.9674C118.93 26.128 118.693 27.1757 118.219 28.1102C117.76 29.0598 117.049 29.8134 116.086 30.3712C115.139 30.929 113.954 31.2078 112.533 31.2078C110.637 31.2078 109.101 30.763 107.924 29.8738C106.747 28.9995 106.075 27.8088 105.907 26.3014H109.781C109.904 26.7837 110.194 27.1606 110.653 27.4319C111.111 27.7183 111.677 27.8615 112.349 27.8615C113.159 27.8615 113.801 27.6279 114.275 27.1606C114.764 26.7084 115.009 25.9774 115.009 24.9674V23.1812C114.627 23.7691 114.099 24.2514 113.427 24.6282C112.754 24.99 111.967 25.1709 111.065 25.1709C110.011 25.1709 109.055 24.907 108.199 24.3795C107.343 23.8369 106.663 23.0756 106.159 22.0959C105.67 21.1011 105.425 19.9555 105.425 18.6592C105.425 17.363 105.67 16.2249 106.159 15.2451C106.663 14.2653 107.343 13.5117 108.199 12.9841C109.055 12.4565 110.011 12.1927 111.065 12.1927ZM115.009 18.6818C115.009 17.7171 114.734 16.9559 114.183 16.3982C113.649 15.8405 112.991 15.5616 112.212 15.5616C111.432 15.5616 110.767 15.8405 110.217 16.3982C109.682 16.9408 109.414 17.6945 109.414 18.6592C109.414 19.624 109.682 20.3927 110.217 20.9654C110.767 21.5232 111.432 21.802 112.212 21.802C112.991 21.802 113.649 21.5232 114.183 20.9654C114.734 20.4077 115.009 19.6466 115.009 18.6818ZM144.852 9.11778V24.99H140.932V15.4712L137.332 24.99H134.168L130.545 15.4486V24.99H126.625V9.11778H131.256L135.773 20.1062L140.244 9.11778H144.852ZM153.495 25.1709C152.242 25.1709 151.111 24.907 150.102 24.3795C149.109 23.852 148.321 23.0982 147.741 22.1185C147.175 21.1388 146.892 19.9932 146.892 18.6818C146.892 17.3856 147.183 16.2475 147.763 15.2677C148.344 14.2729 149.139 13.5117 150.148 12.9841C151.157 12.4565 152.288 12.1927 153.541 12.1927C154.795 12.1927 155.926 12.4565 156.935 12.9841C157.943 13.5117 158.738 14.2729 159.319 15.2677C159.9 16.2475 160.19 17.3856 160.19 18.6818C160.19 19.9781 159.892 21.1237 159.296 22.1185C158.715 23.0982 157.913 23.852 156.889 24.3795C155.88 24.907 154.749 25.1709 153.495 25.1709ZM153.495 21.8246C154.244 21.8246 154.879 21.5533 155.398 21.0106C155.933 20.468 156.201 19.6918 156.201 18.6818C156.201 17.6718 155.941 16.8956 155.421 16.353C154.917 15.8103 154.29 15.539 153.541 15.539C152.777 15.539 152.143 15.8103 151.638 16.353C151.134 16.8805 150.882 17.6569 150.882 18.6818C150.882 19.6918 151.126 20.468 151.615 21.0106C152.12 21.5533 152.746 21.8246 153.495 21.8246ZM170.066 12.238C171.564 12.238 172.757 12.7203 173.643 13.685C174.545 14.6346 174.994 15.946 174.994 17.6191V24.99H171.098V18.1392C171.098 17.2951 170.876 16.6394 170.433 16.1721C169.989 15.7048 169.393 15.4712 168.644 15.4712C167.895 15.4712 167.299 15.7048 166.856 16.1721C166.413 16.6394 166.191 17.2951 166.191 18.1392V24.99H162.27V12.3736H166.191V14.0468C166.588 13.489 167.123 13.0519 167.796 12.7354C168.469 12.4038 169.225 12.238 170.066 12.238ZM189.78 18.4783C189.78 18.8401 189.756 19.217 189.711 19.6088H180.839C180.899 20.3927 181.151 20.9955 181.595 21.4176C182.054 21.8246 182.611 22.0281 183.267 22.0281C184.247 22.0281 184.928 21.6211 185.309 20.8072H189.482C189.268 21.6362 188.879 22.3824 188.312 23.0455C187.762 23.7087 187.067 24.2287 186.226 24.6056C185.386 24.9825 184.445 25.1709 183.405 25.1709C182.152 25.1709 181.037 24.907 180.058 24.3795C179.08 23.852 178.316 23.0982 177.765 22.1185C177.215 21.1388 176.941 19.9932 176.941 18.6818C176.941 17.3704 177.208 16.2249 177.742 15.2451C178.292 14.2653 179.058 13.5117 180.035 12.9841C181.014 12.4565 182.137 12.1927 183.405 12.1927C184.643 12.1927 185.745 12.449 186.707 12.9615C187.67 13.474 188.42 14.205 188.955 15.1547C189.505 16.1043 189.78 17.2122 189.78 18.4783ZM185.767 17.4609C185.767 16.7977 185.538 16.2701 185.079 15.8782C184.621 15.4863 184.048 15.2903 183.361 15.2903C182.702 15.2903 182.145 15.4787 181.687 15.8556C181.244 16.2324 180.968 16.7675 180.861 17.4609H185.767ZM204.916 12.3736L196.891 30.9817H192.673L195.609 24.5604L190.404 12.3736H194.783L197.741 20.2645L200.675 12.3736H204.916Z" fill="#272B2A"/>
</g>
<defs>
<clipPath id="clip0_0_1676">
<rect width="204.971" height="34" fill="white"/>
</clipPath>
</defs>
</svg>
